<?xml version="1.0" encoding="UTF-8" standalone="no"?>
<!DOCTYPE svg PUBLIC "-//W3C//DTD SVG 1.1//EN"
 "http://www.w3.org/Graphics/SVG/1.1/DTD/svg11.dtd">
<!-- Generated by graphviz version 5.0.0 (20220707.1540)
 -->
<!-- Title: dependencies Pages: 1 -->
<svg width="356pt" height="174pt"
 viewBox="0.00 0.00 356.00 173.80" xmlns="http://www.w3.org/2000/svg" xmlns:xlink="http://www.w3.org/1999/xlink">
<g id="graph0" class="graph" transform="scale(1 1) rotate(0) translate(4 169.8)">
<title>dependencies</title>
<polygon fill="white" stroke="transparent" points="-4,4 -4,-169.8 352,-169.8 352,4 -4,4"/>
<text text-anchor="middle" x="174" y="-8.2" font-family="sans-serif" font-size="14.00">dependencies</text>
<g id="clust1" class="cluster">
<title>cluster_AboutUsPageModule</title>
<polygon fill="none" stroke="black" stroke-dasharray="1,5" points="8,-32.8 8,-157.8 340,-157.8 340,-32.8 8,-32.8"/>
</g>
<g id="clust2" class="cluster">
<title>cluster_AboutUsPageModule_declarations</title>
<polygon fill="none" stroke="black" points="222,-40.8 222,-92.8 332,-92.8 332,-40.8 222,-40.8"/>
</g>
<g id="clust4" class="cluster">
<title>cluster_AboutUsPageModule_imports</title>
<polygon fill="none" stroke="black" points="16,-40.8 16,-92.8 214,-92.8 214,-40.8 16,-40.8"/>
</g>
<!-- AboutUsPage -->
<g id="node1" class="node">
<title>AboutUsPage</title>
<polygon fill="#ffffb3" stroke="black" points="323.77,-84.8 230.23,-84.8 230.23,-48.8 323.77,-48.8 323.77,-84.8"/>
<text text-anchor="middle" x="277" y="-62.6" font-family="Times,serif" font-size="14.00">AboutUsPage</text>
</g>
<!-- AboutUsPageModule -->
<g id="node2" class="node">
<title>AboutUsPageModule</title>
<polygon fill="#8dd3c7" stroke="black" points="257.82,-149.8 254.82,-153.8 233.82,-153.8 230.82,-149.8 120.18,-149.8 120.18,-113.8 257.82,-113.8 257.82,-149.8"/>
<text text-anchor="middle" x="189" y="-127.6" font-family="Times,serif" font-size="14.00">AboutUsPageModule</text>
</g>
<!-- AboutUsPage&#45;&gt;AboutUsPageModule -->
<g id="edge1" class="edge">
<title>AboutUsPage&#45;&gt;AboutUsPageModule</title>
<path fill="none" stroke="black" d="M243.89,-84.91C243.89,-84.91 243.89,-103.79 243.89,-103.79"/>
<polygon fill="black" stroke="black" points="240.39,-103.79 243.89,-113.79 247.39,-103.79 240.39,-103.79"/>
</g>
<!-- AboutUsPageRoutingModule -->
<g id="node3" class="node">
<title>AboutUsPageRoutingModule</title>
<polygon fill="#8dd3c7" stroke="black" points="206.44,-84.8 203.44,-88.8 182.44,-88.8 179.44,-84.8 23.56,-84.8 23.56,-48.8 206.44,-48.8 206.44,-84.8"/>
<text text-anchor="middle" x="115" y="-62.6" font-family="Times,serif" font-size="14.00">AboutUsPageRoutingModule</text>
</g>
<!-- AboutUsPageRoutingModule&#45;&gt;AboutUsPageModule -->
<g id="edge2" class="edge">
<title>AboutUsPageRoutingModule&#45;&gt;AboutUsPageModule</title>
<path fill="none" stroke="black" d="M163.28,-84.91C163.28,-84.91 163.28,-103.79 163.28,-103.79"/>
<polygon fill="black" stroke="black" points="159.78,-103.79 163.28,-113.79 166.78,-103.79 159.78,-103.79"/>
</g>
</g>
</svg>
