<?xml version="1.0" encoding="UTF-8" standalone="no"?>
<!DOCTYPE svg PUBLIC "-//W3C//DTD SVG 1.1//EN"
 "http://www.w3.org/Graphics/SVG/1.1/DTD/svg11.dtd">
<!-- Generated by graphviz version 5.0.0 (20220707.1540)
 -->
<!-- Title: dependencies Pages: 1 -->
<svg width="326pt" height="174pt"
 viewBox="0.00 0.00 326.00 173.80" xmlns="http://www.w3.org/2000/svg" xmlns:xlink="http://www.w3.org/1999/xlink">
<g id="graph0" class="graph" transform="scale(1 1) rotate(0) translate(4 169.8)">
<title>dependencies</title>
<polygon fill="white" stroke="transparent" points="-4,4 -4,-169.8 322,-169.8 322,4 -4,4"/>
<text text-anchor="middle" x="159" y="-8.2" font-family="sans-serif" font-size="14.00">dependencies</text>
<g id="clust1" class="cluster">
<title>cluster_ResultPageModule</title>
<polygon fill="none" stroke="black" stroke-dasharray="1,5" points="8,-32.8 8,-157.8 310,-157.8 310,-32.8 8,-32.8"/>
</g>
<g id="clust2" class="cluster">
<title>cluster_ResultPageModule_declarations</title>
<polygon fill="none" stroke="black" points="208,-40.8 208,-92.8 302,-92.8 302,-40.8 208,-40.8"/>
</g>
<g id="clust4" class="cluster">
<title>cluster_ResultPageModule_imports</title>
<polygon fill="none" stroke="black" points="16,-40.8 16,-92.8 200,-92.8 200,-40.8 16,-40.8"/>
</g>
<!-- ResultPage -->
<g id="node1" class="node">
<title>ResultPage</title>
<polygon fill="#ffffb3" stroke="black" points="294.49,-84.8 215.51,-84.8 215.51,-48.8 294.49,-48.8 294.49,-84.8"/>
<text text-anchor="middle" x="255" y="-62.6" font-family="Times,serif" font-size="14.00">ResultPage</text>
</g>
<!-- ResultPageModule -->
<g id="node2" class="node">
<title>ResultPageModule</title>
<polygon fill="#8dd3c7" stroke="black" points="235.05,-149.8 232.05,-153.8 211.05,-153.8 208.05,-149.8 112.95,-149.8 112.95,-113.8 235.05,-113.8 235.05,-149.8"/>
<text text-anchor="middle" x="174" y="-127.6" font-family="Times,serif" font-size="14.00">ResultPageModule</text>
</g>
<!-- ResultPage&#45;&gt;ResultPageModule -->
<g id="edge1" class="edge">
<title>ResultPage&#45;&gt;ResultPageModule</title>
<path fill="none" stroke="black" d="M225.39,-84.91C225.39,-84.91 225.39,-103.79 225.39,-103.79"/>
<polygon fill="black" stroke="black" points="221.89,-103.79 225.39,-113.79 228.89,-103.79 221.89,-103.79"/>
</g>
<!-- ResultPageRoutingModule -->
<g id="node3" class="node">
<title>ResultPageRoutingModule</title>
<polygon fill="#8dd3c7" stroke="black" points="191.66,-84.8 188.66,-88.8 167.66,-88.8 164.66,-84.8 24.34,-84.8 24.34,-48.8 191.66,-48.8 191.66,-84.8"/>
<text text-anchor="middle" x="108" y="-62.6" font-family="Times,serif" font-size="14.00">ResultPageRoutingModule</text>
</g>
<!-- ResultPageRoutingModule&#45;&gt;ResultPageModule -->
<g id="edge2" class="edge">
<title>ResultPageRoutingModule&#45;&gt;ResultPageModule</title>
<path fill="none" stroke="black" d="M152.28,-84.91C152.28,-84.91 152.28,-103.79 152.28,-103.79"/>
<polygon fill="black" stroke="black" points="148.78,-103.79 152.28,-113.79 155.78,-103.79 148.78,-103.79"/>
</g>
</g>
</svg>
