<?xml version="1.0" encoding="UTF-8" standalone="no"?>
<!DOCTYPE svg PUBLIC "-//W3C//DTD SVG 1.1//EN"
 "http://www.w3.org/Graphics/SVG/1.1/DTD/svg11.dtd">
<!-- Generated by graphviz version 5.0.0 (20220707.1540)
 -->
<!-- Title: dependencies Pages: 1 -->
<svg width="310pt" height="247pt"
 viewBox="0.00 0.00 310.00 246.80" xmlns="http://www.w3.org/2000/svg" xmlns:xlink="http://www.w3.org/1999/xlink">
<g id="graph0" class="graph" transform="scale(1 1) rotate(0) translate(4 242.8)">
<title>dependencies</title>
<polygon fill="white" stroke="transparent" points="-4,4 -4,-242.8 306,-242.8 306,4 -4,4"/>
<text text-anchor="middle" x="151" y="-8.2" font-family="sans-serif" font-size="14.00">dependencies</text>
<g id="clust1" class="cluster">
<title>cluster_ScanPageModule</title>
<polygon fill="none" stroke="black" stroke-dasharray="1,5" points="8,-32.8 8,-230.8 294,-230.8 294,-32.8 8,-32.8"/>
</g>
<g id="clust5" class="cluster">
<title>cluster_ScanPageModule_exports</title>
<polygon fill="none" stroke="black" points="90,-170.8 90,-222.8 180,-222.8 180,-170.8 90,-170.8"/>
</g>
<g id="clust4" class="cluster">
<title>cluster_ScanPageModule_imports</title>
<polygon fill="none" stroke="black" points="110,-40.8 110,-92.8 286,-92.8 286,-40.8 110,-40.8"/>
</g>
<g id="clust2" class="cluster">
<title>cluster_ScanPageModule_declarations</title>
<polygon fill="none" stroke="black" points="16,-40.8 16,-92.8 102,-92.8 102,-40.8 16,-40.8"/>
</g>
<!-- ScanPage -->
<g id="node1" class="node">
<title>ScanPage</title>
<polygon fill="#ffffb3" stroke="black" points="94.43,-84.8 23.57,-84.8 23.57,-48.8 94.43,-48.8 94.43,-84.8"/>
<text text-anchor="middle" x="59" y="-62.6" font-family="Times,serif" font-size="14.00">ScanPage</text>
</g>
<!-- ScanPageModule -->
<g id="node2" class="node">
<title>ScanPageModule</title>
<polygon fill="#8dd3c7" stroke="black" points="191.98,-149.8 188.98,-153.8 167.98,-153.8 164.98,-149.8 78.02,-149.8 78.02,-113.8 191.98,-113.8 191.98,-149.8"/>
<text text-anchor="middle" x="135" y="-127.6" font-family="Times,serif" font-size="14.00">ScanPageModule</text>
</g>
<!-- ScanPage&#45;&gt;ScanPageModule -->
<g id="edge1" class="edge">
<title>ScanPage&#45;&gt;ScanPageModule</title>
<path fill="none" stroke="black" d="M86.11,-84.91C86.11,-84.91 86.11,-103.79 86.11,-103.79"/>
<polygon fill="black" stroke="black" points="82.61,-103.79 86.11,-113.79 89.61,-103.79 82.61,-103.79"/>
</g>
<!-- ScanPage  -->
<g id="node4" class="node">
<title>ScanPage </title>
<polygon fill="#fb8072" stroke="black" points="171.93,-214.8 98.07,-214.8 98.07,-178.8 171.93,-178.8 171.93,-214.8"/>
<text text-anchor="middle" x="135" y="-192.6" font-family="Times,serif" font-size="14.00">ScanPage </text>
</g>
<!-- ScanPageModule&#45;&gt;ScanPage  -->
<g id="edge3" class="edge">
<title>ScanPageModule&#45;&gt;ScanPage </title>
<path fill="none" stroke="black" stroke-dasharray="5,2" d="M135,-149.91C135,-149.91 135,-168.79 135,-168.79"/>
<polygon fill="black" stroke="black" points="131.5,-168.79 135,-178.79 138.5,-168.79 131.5,-168.79"/>
</g>
<!-- ScanPageRoutingModule -->
<g id="node3" class="node">
<title>ScanPageRoutingModule</title>
<polygon fill="#8dd3c7" stroke="black" points="277.6,-84.8 274.6,-88.8 253.6,-88.8 250.6,-84.8 118.4,-84.8 118.4,-48.8 277.6,-48.8 277.6,-84.8"/>
<text text-anchor="middle" x="198" y="-62.6" font-family="Times,serif" font-size="14.00">ScanPageRoutingModule</text>
</g>
<!-- ScanPageRoutingModule&#45;&gt;ScanPageModule -->
<g id="edge2" class="edge">
<title>ScanPageRoutingModule&#45;&gt;ScanPageModule</title>
<path fill="none" stroke="black" d="M155.22,-84.91C155.22,-84.91 155.22,-103.79 155.22,-103.79"/>
<polygon fill="black" stroke="black" points="151.72,-103.79 155.22,-113.79 158.72,-103.79 151.72,-103.79"/>
</g>
</g>
</svg>
