<?xml version="1.0" encoding="UTF-8" standalone="no"?>
<!DOCTYPE svg PUBLIC "-//W3C//DTD SVG 1.1//EN"
 "http://www.w3.org/Graphics/SVG/1.1/DTD/svg11.dtd">
<!-- Generated by graphviz version 5.0.0 (20220707.1540)
 -->
<!-- Title: dependencies Pages: 1 -->
<svg width="446pt" height="247pt"
 viewBox="0.00 0.00 446.00 246.80" xmlns="http://www.w3.org/2000/svg" xmlns:xlink="http://www.w3.org/1999/xlink">
<g id="graph0" class="graph" transform="scale(1 1) rotate(0) translate(4 242.8)">
<title>dependencies</title>
<polygon fill="white" stroke="transparent" points="-4,4 -4,-242.8 442,-242.8 442,4 -4,4"/>
<text text-anchor="middle" x="219" y="-8.2" font-family="sans-serif" font-size="14.00">dependencies</text>
<g id="clust1" class="cluster">
<title>cluster_AppModule</title>
<polygon fill="none" stroke="black" stroke-dasharray="1,5" points="8,-32.8 8,-230.8 430,-230.8 430,-32.8 8,-32.8"/>
</g>
<g id="clust2" class="cluster">
<title>cluster_AppModule_declarations</title>
<polygon fill="none" stroke="black" points="300,-40.8 300,-92.8 422,-92.8 422,-40.8 300,-40.8"/>
</g>
<g id="clust4" class="cluster">
<title>cluster_AppModule_imports</title>
<polygon fill="none" stroke="black" points="16,-40.8 16,-92.8 292,-92.8 292,-40.8 16,-40.8"/>
</g>
<g id="clust6" class="cluster">
<title>cluster_AppModule_bootstrap</title>
<polygon fill="none" stroke="black" points="158,-170.8 158,-222.8 282,-222.8 282,-170.8 158,-170.8"/>
</g>
<!-- AppComponent -->
<g id="node1" class="node">
<title>AppComponent</title>
<polygon fill="#ffffb3" stroke="black" points="413.94,-84.8 308.06,-84.8 308.06,-48.8 413.94,-48.8 413.94,-84.8"/>
<text text-anchor="middle" x="361" y="-62.6" font-family="Times,serif" font-size="14.00">AppComponent</text>
</g>
<!-- AppModule -->
<g id="node2" class="node">
<title>AppModule</title>
<polygon fill="#8dd3c7" stroke="black" points="261.66,-149.8 258.66,-153.8 237.66,-153.8 234.66,-149.8 178.34,-149.8 178.34,-113.8 261.66,-113.8 261.66,-149.8"/>
<text text-anchor="middle" x="220" y="-127.6" font-family="Times,serif" font-size="14.00">AppModule</text>
</g>
<!-- AppComponent&#45;&gt;AppModule -->
<g id="edge1" class="edge">
<title>AppComponent&#45;&gt;AppModule</title>
<path fill="none" stroke="black" d="M361,-84.91C361,-104.14 361,-131.8 361,-131.8 361,-131.8 271.92,-131.8 271.92,-131.8"/>
<polygon fill="black" stroke="black" points="271.92,-128.3 261.92,-131.8 271.92,-135.3 271.92,-128.3"/>
</g>
<!-- AppComponent  -->
<g id="node5" class="node">
<title>AppComponent </title>
<polygon fill="#80b1d3" stroke="black" points="274.44,-214.8 165.56,-214.8 165.56,-178.8 274.44,-178.8 274.44,-214.8"/>
<text text-anchor="middle" x="220" y="-192.6" font-family="Times,serif" font-size="14.00">AppComponent </text>
</g>
<!-- AppModule&#45;&gt;AppComponent  -->
<g id="edge4" class="edge">
<title>AppModule&#45;&gt;AppComponent </title>
<path fill="none" stroke="black" stroke-dasharray="1,5" d="M220,-149.91C220,-149.91 220,-168.79 220,-168.79"/>
<polygon fill="black" stroke="black" points="216.5,-168.79 220,-178.79 223.5,-168.79 216.5,-168.79"/>
</g>
<!-- AppRoutingModule -->
<g id="node3" class="node">
<title>AppRoutingModule</title>
<polygon fill="#8dd3c7" stroke="black" points="284.28,-84.8 281.28,-88.8 260.28,-88.8 257.28,-84.8 155.72,-84.8 155.72,-48.8 284.28,-48.8 284.28,-84.8"/>
<text text-anchor="middle" x="220" y="-62.6" font-family="Times,serif" font-size="14.00">AppRoutingModule</text>
</g>
<!-- AppRoutingModule&#45;&gt;AppModule -->
<g id="edge2" class="edge">
<title>AppRoutingModule&#45;&gt;AppModule</title>
<path fill="none" stroke="black" d="M220,-84.91C220,-84.91 220,-103.79 220,-103.79"/>
<polygon fill="black" stroke="black" points="216.5,-103.79 220,-113.79 223.5,-103.79 216.5,-103.79"/>
</g>
<!-- ScanPageModule -->
<g id="node4" class="node">
<title>ScanPageModule</title>
<polygon fill="#8dd3c7" stroke="black" points="137.98,-84.8 134.98,-88.8 113.98,-88.8 110.98,-84.8 24.02,-84.8 24.02,-48.8 137.98,-48.8 137.98,-84.8"/>
<text text-anchor="middle" x="81" y="-62.6" font-family="Times,serif" font-size="14.00">ScanPageModule</text>
</g>
<!-- ScanPageModule&#45;&gt;AppModule -->
<g id="edge3" class="edge">
<title>ScanPageModule&#45;&gt;AppModule</title>
<path fill="none" stroke="black" d="M81,-84.91C81,-104.14 81,-131.8 81,-131.8 81,-131.8 168.3,-131.8 168.3,-131.8"/>
<polygon fill="black" stroke="black" points="168.3,-135.3 178.3,-131.8 168.3,-128.3 168.3,-135.3"/>
</g>
</g>
</svg>
