<?xml version="1.0" encoding="UTF-8" standalone="no"?>
<!DOCTYPE svg PUBLIC "-//W3C//DTD SVG 1.1//EN"
 "http://www.w3.org/Graphics/SVG/1.1/DTD/svg11.dtd">
<!-- Generated by graphviz version 5.0.0 (20220707.1540)
 -->
<!-- Title: dependencies Pages: 1 -->
<svg width="346pt" height="174pt"
 viewBox="0.00 0.00 346.00 173.80" xmlns="http://www.w3.org/2000/svg" xmlns:xlink="http://www.w3.org/1999/xlink">
<g id="graph0" class="graph" transform="scale(1 1) rotate(0) translate(4 169.8)">
<title>dependencies</title>
<polygon fill="white" stroke="transparent" points="-4,4 -4,-169.8 342,-169.8 342,4 -4,4"/>
<text text-anchor="middle" x="169" y="-8.2" font-family="sans-serif" font-size="14.00">dependencies</text>
<g id="clust1" class="cluster">
<title>cluster_SettingsPageModule</title>
<polygon fill="none" stroke="black" stroke-dasharray="1,5" points="8,-32.8 8,-157.8 330,-157.8 330,-32.8 8,-32.8"/>
</g>
<g id="clust2" class="cluster">
<title>cluster_SettingsPageModule_declarations</title>
<polygon fill="none" stroke="black" points="218,-40.8 218,-92.8 322,-92.8 322,-40.8 218,-40.8"/>
</g>
<g id="clust4" class="cluster">
<title>cluster_SettingsPageModule_imports</title>
<polygon fill="none" stroke="black" points="16,-40.8 16,-92.8 210,-92.8 210,-40.8 16,-40.8"/>
</g>
<!-- SettingsPage -->
<g id="node1" class="node">
<title>SettingsPage</title>
<polygon fill="#ffffb3" stroke="black" points="314.33,-84.8 225.67,-84.8 225.67,-48.8 314.33,-48.8 314.33,-84.8"/>
<text text-anchor="middle" x="270" y="-62.6" font-family="Times,serif" font-size="14.00">SettingsPage</text>
</g>
<!-- SettingsPageModule -->
<g id="node2" class="node">
<title>SettingsPageModule</title>
<polygon fill="#8dd3c7" stroke="black" points="249.88,-149.8 246.88,-153.8 225.88,-153.8 222.88,-149.8 118.12,-149.8 118.12,-113.8 249.88,-113.8 249.88,-149.8"/>
<text text-anchor="middle" x="184" y="-127.6" font-family="Times,serif" font-size="14.00">SettingsPageModule</text>
</g>
<!-- SettingsPage&#45;&gt;SettingsPageModule -->
<g id="edge1" class="edge">
<title>SettingsPage&#45;&gt;SettingsPageModule</title>
<path fill="none" stroke="black" d="M237.89,-84.91C237.89,-84.91 237.89,-103.79 237.89,-103.79"/>
<polygon fill="black" stroke="black" points="234.39,-103.79 237.89,-113.79 241.39,-103.79 234.39,-103.79"/>
</g>
<!-- SettingsPageRoutingModule -->
<g id="node3" class="node">
<title>SettingsPageRoutingModule</title>
<polygon fill="#8dd3c7" stroke="black" points="201.5,-84.8 198.5,-88.8 177.5,-88.8 174.5,-84.8 24.5,-84.8 24.5,-48.8 201.5,-48.8 201.5,-84.8"/>
<text text-anchor="middle" x="113" y="-62.6" font-family="Times,serif" font-size="14.00">SettingsPageRoutingModule</text>
</g>
<!-- SettingsPageRoutingModule&#45;&gt;SettingsPageModule -->
<g id="edge2" class="edge">
<title>SettingsPageRoutingModule&#45;&gt;SettingsPageModule</title>
<path fill="none" stroke="black" d="M159.78,-84.91C159.78,-84.91 159.78,-103.79 159.78,-103.79"/>
<polygon fill="black" stroke="black" points="156.28,-103.79 159.78,-113.79 163.28,-103.79 156.28,-103.79"/>
</g>
</g>
</svg>
